<mxfile host="app.diagrams.net" modified="2024-02-29T00:46:56.276Z" agent="Mozilla/5.0 (Windows NT 10.0; Win64; x64) AppleWebKit/537.36 (KHTML, like Gecko) Chrome/121.0.0.0 Safari/537.36" etag="-4WjarJ-xswWy3TQPrvU" version="23.1.8" type="device">
  <diagram id="C5RBs43oDa-KdzZeNtuy" name="Page-1">
    <mxGraphModel dx="1434" dy="746" grid="1" gridSize="10" guides="1" tooltips="1" connect="1" arrows="1" fold="1" page="1" pageScale="1" pageWidth="827" pageHeight="1169" math="0" shadow="0">
      <root>
        <mxCell id="WIyWlLk6GJQsqaUBKTNV-0" />
        <mxCell id="WIyWlLk6GJQsqaUBKTNV-1" parent="WIyWlLk6GJQsqaUBKTNV-0" />
        <mxCell id="43-bNM765qXtJcL10XEs-22" value="" style="edgeStyle=orthogonalEdgeStyle;rounded=0;orthogonalLoop=1;jettySize=auto;html=1;" parent="WIyWlLk6GJQsqaUBKTNV-1" source="43-bNM765qXtJcL10XEs-20" target="43-bNM765qXtJcL10XEs-21" edge="1">
          <mxGeometry relative="1" as="geometry" />
        </mxCell>
        <mxCell id="43-bNM765qXtJcL10XEs-20" value="a lâmpada não funciona" style="strokeWidth=2;html=1;shape=mxgraph.flowchart.terminator;whiteSpace=wrap;fillColor=#f8cecc;strokeColor=#b85450;" parent="WIyWlLk6GJQsqaUBKTNV-1" vertex="1">
          <mxGeometry x="314" y="160" width="100" height="60" as="geometry" />
        </mxCell>
        <mxCell id="43-bNM765qXtJcL10XEs-24" value="" style="edgeStyle=orthogonalEdgeStyle;rounded=0;orthogonalLoop=1;jettySize=auto;html=1;" parent="WIyWlLk6GJQsqaUBKTNV-1" source="43-bNM765qXtJcL10XEs-21" target="43-bNM765qXtJcL10XEs-23" edge="1">
          <mxGeometry relative="1" as="geometry" />
        </mxCell>
        <mxCell id="43-bNM765qXtJcL10XEs-28" value="" style="edgeStyle=orthogonalEdgeStyle;rounded=0;orthogonalLoop=1;jettySize=auto;html=1;" parent="WIyWlLk6GJQsqaUBKTNV-1" source="43-bNM765qXtJcL10XEs-21" target="43-bNM765qXtJcL10XEs-27" edge="1">
          <mxGeometry relative="1" as="geometry" />
        </mxCell>
        <mxCell id="43-bNM765qXtJcL10XEs-21" value="a lampada estava plugada ?" style="strokeWidth=2;html=1;shape=mxgraph.flowchart.decision;whiteSpace=wrap;fillColor=#dae8fc;strokeColor=#6c8ebf;" parent="WIyWlLk6GJQsqaUBKTNV-1" vertex="1">
          <mxGeometry x="314" y="240" width="100" height="100" as="geometry" />
        </mxCell>
        <mxCell id="43-bNM765qXtJcL10XEs-26" value="" style="edgeStyle=orthogonalEdgeStyle;rounded=0;orthogonalLoop=1;jettySize=auto;html=1;" parent="WIyWlLk6GJQsqaUBKTNV-1" source="43-bNM765qXtJcL10XEs-23" target="43-bNM765qXtJcL10XEs-25" edge="1">
          <mxGeometry relative="1" as="geometry" />
        </mxCell>
        <mxCell id="43-bNM765qXtJcL10XEs-30" value="" style="edgeStyle=orthogonalEdgeStyle;rounded=0;orthogonalLoop=1;jettySize=auto;html=1;" parent="WIyWlLk6GJQsqaUBKTNV-1" source="43-bNM765qXtJcL10XEs-23" target="43-bNM765qXtJcL10XEs-29" edge="1">
          <mxGeometry relative="1" as="geometry" />
        </mxCell>
        <mxCell id="43-bNM765qXtJcL10XEs-23" value="o bulbo queimou ?" style="strokeWidth=2;html=1;shape=mxgraph.flowchart.decision;whiteSpace=wrap;fillColor=#dae8fc;strokeColor=#6c8ebf;" parent="WIyWlLk6GJQsqaUBKTNV-1" vertex="1">
          <mxGeometry x="314" y="370" width="100" height="100" as="geometry" />
        </mxCell>
        <mxCell id="43-bNM765qXtJcL10XEs-25" value="comprar lampada nova" style="strokeWidth=2;html=1;shape=mxgraph.flowchart.terminator;whiteSpace=wrap;fillColor=#f8cecc;strokeColor=#b85450;" parent="WIyWlLk6GJQsqaUBKTNV-1" vertex="1">
          <mxGeometry x="314" y="500" width="100" height="60" as="geometry" />
        </mxCell>
        <mxCell id="43-bNM765qXtJcL10XEs-27" value="plugar a lampada" style="strokeWidth=2;html=1;shape=mxgraph.flowchart.terminator;whiteSpace=wrap;fillColor=#f8cecc;strokeColor=#b85450;" parent="WIyWlLk6GJQsqaUBKTNV-1" vertex="1">
          <mxGeometry x="440" y="260" width="100" height="60" as="geometry" />
        </mxCell>
        <mxCell id="43-bNM765qXtJcL10XEs-29" value="trocar o bulbo" style="strokeWidth=2;html=1;shape=mxgraph.flowchart.terminator;whiteSpace=wrap;fillColor=#f8cecc;strokeColor=#b85450;" parent="WIyWlLk6GJQsqaUBKTNV-1" vertex="1">
          <mxGeometry x="440" y="390" width="100" height="60" as="geometry" />
        </mxCell>
        <mxCell id="yHLD0yrJqmRqMC728A4D-0" style="edgeStyle=orthogonalEdgeStyle;rounded=0;orthogonalLoop=1;jettySize=auto;html=1;exitX=0.11;exitY=0.11;exitDx=0;exitDy=0;exitPerimeter=0;entryX=0.11;entryY=0.333;entryDx=0;entryDy=0;entryPerimeter=0;fillColor=#f8cecc;strokeColor=#b85450;" edge="1" parent="WIyWlLk6GJQsqaUBKTNV-1" source="43-bNM765qXtJcL10XEs-29" target="43-bNM765qXtJcL10XEs-29">
          <mxGeometry relative="1" as="geometry" />
        </mxCell>
      </root>
    </mxGraphModel>
  </diagram>
</mxfile>
